<!DOCTYPE svg PUBLIC "-//W3C//DTD SVG 20010904//EN" "http://www.w3.org/TR/2001/REC-SVG-20010904/DTD/svg10.dtd">
<svg version="1.0" xmlns="http://www.w3.org/2000/svg" width="386px" height="406px" viewBox="0 0 3860 4060" preserveAspectRatio="xMidYMid meet">
<g id="layer1" fill="#0b0b0b" stroke="none">
 <path d="M2296 3893 c-3 -4 -6 -19 -6 -33 0 -15 -7 -33 -15 -40 -17 -14 -20 -40 -5 -40 14 0 32 -50 25 -69 -5 -13 -10 -12 -26 9 -12 17 -21 21 -26 14 -11 -16 -53 1 -53 21 0 13 -6 15 -29 10 -23 -5 -34 -1 -50 16 -18 20 -24 21 -44 10 -14 -7 -39 -11 -58 -9 -19 1 -35 0 -36 -5 -2 -4 -9 -20 -18 -37 -20 -38 -19 -43 8 -55 12 -6 23 -20 25 -32 2 -13 11 -23 20 -23 26 -1 62 -35 62 -59 0 -14 6 -21 19 -21 28 0 64 -53 48 -69 -9 -10 -7 -16 11 -28 22 -15 32 -73 13 -73 -14 0 -23 -33 -10 -41 19 -11 -4 -65 -26 -61 -14 3 -17 -2 -12 -23 4 -21 -6 -41 -43 -90 -55 -73 -90 -167 -90 -242 0 -68 35 -169 90 -259 78 -126 83 -135 77 -141 -10 -9 -82 53 -125 110 -47 61 -116 201 -131 267 -20 85 -14 116 28 173 45 59 75 125 85 183 7 41 -10 137 -23 130 -4 -3 -6 -37 -5 -76 1 -50 -2 -75 -13 -85 -8 -8 -12 -19 -8 -25 6 -10 -29 -50 -44 -50 -17 0 -22 63 -5 87 12 19 13 27 3 39 -7 8 -9 30 -6 54 3 26 0 51 -10 70 -8 17 -12 39 -8 50 3 11 2 20 -4 20 -16 0 -24 40 -11 55 9 11 9 19 2 28 -12 15 -6 27 23 43 24 14 84 -12 85 -36 0 -9 5 -21 12 -28 9 -9 7 -16 -7 -32 -24 -26 -11 -39 15 -15 40 36 13 135 -42 154 -39 14 -61 14 -92 0 -36 -17 -49 -59 -44 -139 3 -39 4 -70 3 -70 -1 0 -24 12 -50 27 l-48 26 -17 -23 c-19 -26 -29 -23 -70 21 -12 13 -31 15 -98 11 -74 -4 -84 -7 -92 -26 -4 -12 -15 -28 -25 -36 -25 -21 -45 -65 -45 -101 0 -32 1 -32 25 18 14 28 38 59 52 68 52 35 166 15 192 -33 8 -15 -26 -87 -167 -353 -174 -327 -178 -334 -210 -337 -22 -2 -34 2 -38 12 -8 20 -64 22 -64 2 0 -16 -94 -51 -110 -41 -15 9 -52 -15 -46 -30 2 -7 -6 -23 -20 -36 -13 -12 -26 -30 -30 -41 -3 -10 -14 -18 -24 -18 -19 0 -36 -32 -25 -49 7 -13 -16 -102 -32 -122 -16 -19 -17 -46 -2 -51 6 -2 11 -31 12 -66 1 -34 6 -62 12 -62 16 -1 65 -78 65 -103 0 -25 -169 -349 -185 -354 -5 -1 -39 19 -75 46 l-64 49 -51 -76 c-95 -144 -263 -289 -390 -338 -25 -9 -45 -20 -45 -25 0 -30 194 -45 255 -20 l30 13 -27 14 c-16 8 -28 16 -28 18 0 2 17 15 37 29 59 40 148 130 215 216 l26 34 36 -23 c21 -12 36 -27 34 -34 -2 -6 -43 -87 -91 -179 -79 -150 -90 -167 -105 -155 -10 7 -20 17 -24 23 -13 18 -16 0 -20 -137 l-5 -138 31 25 c17 13 69 51 115 82 l83 58 -31 9 c-17 5 -31 13 -31 18 0 5 41 85 91 179 73 136 95 169 108 164 9 -4 29 -12 44 -17 21 -8 26 -15 21 -27 -23 -53 -56 -189 -66 -271 -6 -52 -13 -97 -15 -99 -1 -2 -14 4 -29 13 -26 18 -26 17 -19 -6 17 -60 60 -130 105 -172 59 -55 72 -58 59 -13 -19 65 -22 218 -5 314 13 74 53 207 90 293 5 12 -10 20 -69 39 -41 12 -78 27 -81 32 -3 5 37 89 89 187 77 143 100 178 119 181 12 1 25 6 28 10 10 13 72 41 91 41 13 0 19 7 19 23 0 12 11 44 25 70 33 67 41 124 21 171 -15 36 -15 38 22 111 20 41 42 75 48 75 19 0 73 -71 84 -110 17 -61 11 -109 -27 -218 -66 -193 -56 -364 27 -496 17 -27 67 -86 111 -132 67 -70 79 -88 79 -117 0 -66 31 -211 61 -286 17 -42 56 -116 89 -166 63 -98 75 -123 120 -255 17 -48 46 -123 66 -166 30 -65 35 -86 29 -120 -7 -49 24 -127 59 -148 12 -7 75 -21 141 -30 66 -9 183 -33 260 -53 119 -32 156 -37 245 -38 91 0 111 3 150 24 145 77 318 299 351 452 6 29 9 86 7 126 -5 69 -8 77 -42 112 -45 46 -118 84 -201 106 -71 18 -265 21 -328 4 -61 -16 -137 -57 -174 -92 -18 -17 -36 -27 -40 -23 -5 4 -8 29 -7 55 1 65 40 133 146 253 111 125 140 168 193 281 67 145 89 240 89 387 1 69 -5 165 -13 214 -20 124 1 253 60 373 66 132 143 186 269 187 104 1 169 -24 237 -91 43 -44 56 -65 74 -124 24 -81 22 -133 -11 -207 -27 -61 -54 -88 -105 -108 -84 -32 -207 20 -241 102 -19 46 -17 112 4 154 20 41 63 54 111 34 75 -31 74 -166 -1 -146 -14 3 -17 0 -12 -12 7 -19 28 -20 67 -3 26 11 29 17 31 67 1 37 -3 58 -12 65 -7 6 -17 27 -21 45 -6 33 -9 35 -51 37 -25 1 -62 4 -83 7 -32 5 -39 3 -47 -16 -11 -28 -45 -68 -57 -68 -12 0 -8 -180 4 -188 8 -6 29 -42 53 -92 4 -8 13 -15 21 -15 17 0 82 -34 90 -48 4 -5 43 -10 86 -10 73 0 84 2 117 28 20 15 46 28 59 29 13 1 23 9 26 21 5 28 40 75 56 75 9 0 13 15 13 48 0 26 6 63 14 82 12 29 12 40 1 74 -9 24 -12 55 -8 78 6 33 4 40 -12 44 -19 5 -47 58 -44 82 3 18 -18 42 -36 42 -15 0 -88 58 -88 69 -1 18 -20 32 -36 28 -26 -7 -90 14 -111 35 -20 20 -38 23 -38 8 0 -5 -22 -10 -49 -10 -28 0 -53 5 -56 10 -8 13 -45 13 -45 0 0 -13 -79 -53 -94 -47 -17 7 -36 -6 -49 -34 -7 -13 -30 -36 -52 -51 -22 -15 -39 -32 -37 -38 4 -16 -35 -77 -54 -84 -10 -4 -14 -14 -11 -26 4 -17 -14 -88 -29 -112 -3 -5 -24 17 -46 48 l-41 56 31 72 c80 185 83 362 8 461 -14 18 -26 35 -26 37 0 2 40 3 89 3 73 0 93 3 110 19 22 20 20 57 -5 87 -8 8 -14 20 -14 26 0 6 -7 13 -15 17 -16 6 -19 73 -4 92 11 13 5 79 -8 96 -5 7 -13 21 -16 31 -5 14 -15 17 -39 15 -31 -3 -33 -6 -36 -45 -2 -34 0 -43 12 -43 19 0 21 11 5 27 -15 15 -4 43 15 43 19 0 46 -38 46 -66 0 -31 -39 -116 -51 -109 -5 4 -9 14 -9 24 0 10 -7 24 -15 31 -8 7 -15 17 -15 22 0 13 -50 52 -70 56 -90 15 -167 6 -216 -25 -11 -7 -23 -11 -26 -8 -2 3 -15 -6 -28 -20 -13 -14 -29 -25 -37 -25 -7 0 -13 -7 -13 -15 0 -8 -9 -20 -20 -27 -11 -7 -20 -20 -20 -29 0 -9 -7 -19 -15 -23 -8 -3 -15 -11 -15 -19 0 -7 -9 -30 -19 -51 -11 -21 -25 -72 -31 -113 -20 -129 5 -250 73 -355 38 -59 144 -164 195 -194 30 -17 33 -22 28 -54 -3 -19 -9 -86 -12 -147 -4 -62 -10 -113 -13 -113 -3 0 -19 23 -35 51 -15 28 -48 75 -72 105 -27 33 -48 71 -54 99 -20 91 -33 116 -186 350 -16 25 -19 48 -19 130 l0 101 59 119 c72 145 96 221 96 300 0 73 -18 105 -102 188 -33 32 -58 61 -55 63 3 3 47 -2 99 -12 139 -25 143 -25 141 11 0 17 -7 49 -14 73 -23 73 23 111 60 51 l20 -33 -1 53 c-1 29 -6 55 -12 57 -23 7 -94 12 -100 7z m-458 -564 c3 -72 -5 -145 -24 -212 -3 -9 -10 -15 -15 -12 -13 8 -11 49 2 62 9 9 8 21 -5 48 -12 24 -15 46 -11 67 5 21 3 33 -6 39 -11 7 -9 17 11 54 13 25 29 44 35 42 5 -2 11 -41 13 -88z m853 -26 c52 -51 52 -153 0 -153 -26 0 -101 -39 -108 -56 -3 -9 4 -28 16 -42 66 -81 81 -200 41 -316 -26 -78 -67 -146 -86 -146 -9 0 -60 44 -114 98 -119 118 -152 178 -158 288 -5 87 15 162 60 230 66 96 141 136 251 131 60 -2 71 -6 98 -34z m116 -126 c19 -23 21 -32 12 -49 -9 -17 -18 -20 -55 -15 -25 2 -48 7 -51 10 -3 4 8 20 24 36 23 23 29 37 26 58 -4 26 -3 26 8 8 7 -11 23 -33 36 -48z m-1097 -4 c-1 -58 -47 -178 -89 -230 -56 -71 -65 -186 -22 -272 11 -22 48 -63 81 -93 51 -45 65 -64 89 -128 65 -169 80 -337 40 -466 -17 -54 -125 -279 -147 -304 -2 -3 -30 23 -62 57 -71 75 -111 165 -85 193 19 21 19 34 0 50 -21 18 -19 57 5 70 21 11 27 46 9 52 -17 6 0 55 21 61 14 4 18 14 17 57 -1 37 4 56 15 64 24 18 31 53 13 64 -13 6 -17 25 -17 77 -1 54 -5 69 -18 72 -17 5 -55 66 -55 91 0 15 -9 22 -57 41 -17 6 -28 18 -28 30 0 23 269 531 281 531 5 0 9 -8 9 -17z m114 -311 c19 -107 60 -213 112 -285 19 -27 33 -52 30 -55 -7 -6 -135 79 -158 106 -22 25 -39 81 -32 106 3 14 -1 28 -10 35 -18 15 -22 71 -6 71 13 0 13 37 0 45 -13 8 -1 37 24 57 11 9 21 16 22 15 1 -1 9 -44 18 -95z m-592 -287 c8 -9 -71 -152 -88 -159 -8 -3 -13 -10 -9 -15 6 -10 -70 -168 -99 -206 -14 -19 -15 -19 -32 20 -63 147 20 319 171 356 40 9 51 10 57 4z m733 -180 c105 -75 153 -151 175 -277 17 -97 6 -121 -107 -236 -106 -108 -165 -209 -185 -319 -6 -35 -15 -63 -20 -63 -4 0 -15 11 -23 24 -15 22 -14 29 5 87 12 34 32 84 45 110 62 122 105 277 105 379 0 63 -23 167 -60 274 -11 33 -20 61 -20 63 0 12 31 -3 85 -42z m675 -105 c49 -98 73 -202 65 -284 -14 -148 -73 -354 -104 -364 -11 -4 -12 1 -7 19 39 134 45 262 22 425 -24 158 -30 264 -17 264 6 0 24 -27 41 -60z m-1390 18 c0 -46 -71 -158 -100 -158 -6 0 10 41 37 90 49 92 63 107 63 68z m1104 -241 c46 -139 -1 -337 -122 -505 -29 -41 -59 -87 -67 -103 -9 -16 -18 -29 -22 -29 -19 0 22 149 86 315 31 78 81 294 81 346 0 28 10 43 21 32 4 -5 14 -30 23 -56z m96 -1322 c56 -29 67 -93 24 -144 -20 -25 -34 -31 -64 -31 -96 0 -137 122 -57 171 39 23 59 24 97 4z"/>
 </g>
<g id="layer2" fill="#fdfdfd" stroke="none">
 <path d="M0 2030 l0 -2030 1930 0 1930 0 0 2030 0 2030 -1930 0 -1930 0 0 -2030z m2396 1856 c6 -2 11 -28 12 -57 l1 -53 -20 33 c-37 60 -83 22 -60 -51 7 -24 14 -56 14 -73 2 -36 -2 -36 -141 -11 -52 10 -96 15 -99 12 -3 -2 22 -31 55 -63 84 -83 102 -115 102 -188 0 -79 -24 -155 -96 -300 l-59 -119 0 -101 c0 -82 3 -105 19 -130 153 -234 166 -259 186 -350 6 -28 27 -66 54 -99 24 -30 57 -77 72 -105 16 -28 32 -51 35 -51 3 0 9 51 13 113 3 61 9 128 12 147 5 32 2 37 -28 54 -51 30 -157 135 -195 194 -68 105 -93 226 -73 355 6 41 20 92 31 113 10 21 19 44 19 51 0 8 7 16 15 19 8 4 15 14 15 23 0 9 9 22 20 29 11 7 20 19 20 27 0 8 6 15 13 15 8 0 24 11 37 25 13 14 26 23 28 20 3 -3 15 1 26 8 49 31 126 40 216 25 20 -4 70 -43 70 -56 0 -5 7 -15 15 -22 8 -7 15 -21 15 -31 0 -10 4 -20 9 -24 12 -7 51 78 51 109 0 28 -27 66 -46 66 -19 0 -30 -28 -15 -43 16 -16 14 -27 -5 -27 -12 0 -14 9 -12 43 3 39 5 42 36 45 24 2 34 -1 39 -15 3 -10 11 -24 16 -31 13 -17 19 -83 8 -96 -15 -19 -12 -86 4 -92 8 -4 15 -11 15 -17 0 -6 6 -18 14 -26 25 -30 27 -67 5 -87 -17 -16 -37 -19 -110 -19 -49 0 -89 -1 -89 -3 0 -2 12 -19 26 -37 75 -99 72 -276 -8 -461 l-31 -72 41 -56 c22 -31 43 -53 46 -48 15 24 33 95 29 112 -3 12 1 22 11 26 19 7 58 68 54 84 -2 6 15 23 37 38 22 15 45 38 52 51 13 28 32 41 49 34 15 -6 94 34 94 47 0 13 37 13 45 0 3 -5 28 -10 56 -10 27 0 49 5 49 10 0 15 18 12 38 -8 21 -21 85 -42 111 -35 16 4 35 -10 36 -28 0 -11 73 -69 88 -69 18 0 39 -24 36 -42 -3 -24 25 -77 44 -82 16 -4 18 -11 12 -44 -4 -23 -1 -54 8 -78 11 -34 11 -45 -1 -74 -8 -19 -14 -56 -14 -82 0 -33 -4 -48 -13 -48 -16 0 -51 -47 -56 -75 -3 -12 -13 -20 -26 -21 -13 -1 -39 -14 -59 -29 -33 -26 -44 -28 -117 -28 -43 0 -82 5 -86 10 -8 14 -73 48 -90 48 -8 0 -17 7 -21 15 -24 50 -45 86 -53 92 -12 8 -16 188 -4 188 12 0 46 40 57 68 8 19 15 21 47 16 21 -3 58 -6 83 -7 42 -2 45 -4 51 -37 4 -18 14 -39 21 -45 9 -7 13 -28 12 -65 -2 -50 -5 -56 -31 -67 -39 -17 -60 -16 -67 3 -5 12 -2 15 12 12 75 -20 76 115 1 146 -48 20 -91 7 -111 -34 -55 -108 13 -234 140 -261 93 -19 160 18 202 113 33 74 35 126 11 207 -18 59 -31 80 -74 124 -68 67 -133 92 -237 91 -126 -1 -203 -55 -269 -187 -59 -120 -80 -249 -60 -373 8 -49 14 -145 13 -214 0 -147 -22 -242 -89 -387 -53 -113 -82 -156 -193 -281 -106 -120 -145 -188 -146 -253 -1 -26 2 -51 7 -55 4 -4 22 6 40 23 37 35 113 76 174 92 63 17 257 14 328 -4 83 -22 156 -60 201 -106 34 -35 37 -43 42 -112 2 -40 -1 -97 -7 -126 -33 -153 -206 -375 -351 -452 -39 -21 -59 -24 -150 -24 -89 1 -126 6 -245 38 -77 20 -194 44 -260 53 -66 9 -129 23 -141 30 -35 21 -66 99 -59 148 6 34 1 55 -29 120 -20 43 -49 118 -66 166 -45 132 -57 157 -120 255 -33 50 -72 124 -89 166 -30 75 -61 220 -61 286 0 29 -12 47 -79 117 -44 46 -94 105 -111 132 -83 132 -93 303 -27 496 38 109 44 157 27 218 -11 39 -65 110 -84 110 -6 0 -28 -34 -48 -75 -37 -73 -37 -75 -22 -111 20 -47 12 -104 -21 -171 -14 -26 -25 -58 -25 -70 0 -16 -6 -23 -19 -23 -19 0 -81 -28 -91 -41 -3 -4 -16 -9 -28 -10 -19 -3 -42 -38 -119 -181 -52 -98 -92 -182 -89 -187 3 -5 40 -20 81 -32 59 -19 74 -27 69 -39 -37 -86 -77 -219 -90 -293 -17 -96 -14 -249 5 -314 13 -45 0 -42 -59 13 -45 42 -88 112 -105 172 -7 23 -7 24 19 6 15 -9 28 -15 29 -13 2 2 9 47 15 99 10 82 43 218 66 271 5 12 0 19 -21 27 -15 5 -35 13 -44 17 -13 5 -35 -28 -108 -164 -50 -94 -91 -174 -91 -179 0 -5 14 -13 31 -18 l31 -9 -83 -58 c-46 -31 -98 -69 -115 -82 l-31 -25 5 138 c4 137 7 155 20 137 4 -6 14 -16 24 -23 15 -12 26 5 105 155 48 92 89 173 91 179 2 7 -13 22 -34 34 l-36 23 -26 -34 c-67 -86 -156 -176 -215 -216 -20 -14 -37 -27 -37 -29 0 -2 12 -10 28 -18 l27 -14 -30 -13 c-61 -25 -255 -10 -255 20 0 5 20 16 45 25 127 49 295 194 390 338 l51 76 64 -49 c36 -27 70 -47 75 -46 16 5 185 329 185 354 0 25 -49 102 -65 103 -6 0 -11 28 -12 62 -1 35 -6 64 -12 66 -15 5 -14 32 2 51 16 20 39 109 32 122 -11 17 6 49 25 49 10 0 21 8 24 18 4 11 17 29 30 41 14 13 22 29 20 36 -6 15 31 39 46 30 16 -10 110 25 110 41 0 20 56 18 64 -2 4 -10 16 -14 38 -12 32 3 36 10 210 337 141 266 175 338 167 353 -26 48 -140 68 -192 33 -14 -9 -38 -40 -52 -68 -24 -50 -25 -50 -25 -18 0 36 20 80 45 101 10 8 21 24 25 36 8 19 18 22 92 26 67 4 86 2 98 -11 41 -44 51 -47 70 -21 l17 23 48 -26 c26 -15 49 -27 50 -27 1 0 0 31 -3 70 -5 80 8 122 44 139 31 14 53 14 92 0 55 -19 82 -118 42 -154 -26 -24 -39 -11 -15 15 14 16 16 23 7 32 -7 7 -12 19 -12 28 -1 24 -61 50 -85 36 -29 -16 -35 -28 -23 -43 7 -9 7 -17 -2 -28 -13 -15 -5 -55 11 -55 6 0 7 -9 4 -20 -4 -11 0 -33 8 -50 10 -19 13 -44 10 -70 -3 -24 -1 -46 6 -54 10 -12 9 -20 -3 -39 -17 -24 -12 -87 5 -87 15 0 50 40 44 50 -4 6 0 17 8 25 11 10 14 35 13 85 -1 39 1 73 5 76 13 7 30 -89 23 -130 -10 -58 -40 -124 -85 -183 -42 -57 -48 -88 -28 -173 15 -66 84 -206 131 -267 43 -57 115 -119 125 -110 6 6 1 15 -77 141 -55 90 -90 191 -90 259 0 75 35 169 90 242 37 49 47 69 43 90 -5 21 -2 26 12 23 22 -4 45 50 26 61 -13 8 -4 41 10 41 19 0 9 58 -13 73 -18 12 -20 18 -11 28 16 16 -20 69 -48 69 -13 0 -19 7 -19 21 0 24 -36 58 -62 59 -9 0 -18 10 -20 23 -2 12 -13 26 -25 32 -27 12 -28 17 -8 55 9 17 16 33 18 37 1 5 17 6 36 5 19 -2 44 2 58 9 20 11 26 10 44 -10 16 -17 27 -21 50 -16 23 5 29 3 29 -10 0 -20 42 -37 53 -21 5 7 14 3 26 -14 16 -21 21 -22 26 -9 7 19 -11 69 -25 69 -15 0 -12 26 5 40 8 7 15 25 15 40 0 14 3 29 6 33 6 5 77 0 100 -7z"/>
 <path d="M1790 3375 c-20 -37 -22 -47 -11 -54 9 -6 11 -18 6 -39 -4 -21 -1 -43 11 -67 13 -27 14 -39 5 -48 -13 -13 -15 -54 -2 -62 11 -6 14 4 31 85 13 64 10 222 -5 227 -6 2 -22 -17 -35 -42z"/>
 <path d="M2486 3326 c-126 -47 -213 -194 -204 -350 6 -110 39 -170 158 -288 54 -54 105 -98 114 -98 19 0 60 68 86 146 40 116 25 235 -41 316 -12 14 -19 33 -16 42 7 17 82 56 108 56 52 0 52 102 0 153 -27 28 -38 32 -98 34 -41 2 -83 -2 -107 -11z"/>
 <path d="M2763 3217 c3 -21 -3 -35 -26 -58 -16 -16 -27 -32 -24 -36 3 -3 26 -8 51 -10 37 -5 46 -2 55 15 9 17 7 26 -12 49 -13 15 -29 37 -36 48 -11 18 -12 18 -8 -8z"/>
 <path d="M1556 2934 c-75 -141 -136 -265 -136 -275 0 -12 11 -24 28 -30 48 -19 57 -26 57 -41 0 -25 38 -86 55 -91 13 -3 17 -18 18 -72 0 -52 4 -71 17 -77 18 -11 11 -46 -13 -64 -11 -8 -16 -27 -15 -64 1 -43 -3 -53 -17 -57 -21 -6 -38 -55 -21 -61 18 -6 12 -41 -9 -52 -24 -13 -26 -52 -5 -70 19 -16 19 -29 0 -50 -26 -28 14 -118 85 -193 32 -34 60 -60 62 -57 22 25 130 250 147 304 40 129 25 297 -40 466 -24 64 -38 83 -89 128 -33 30 -70 71 -81 93 -43 86 -34 201 22 272 55 68 112 247 80 247 -5 0 -70 -115 -145 -256z"/>
 <path d="M1784 2942 c-25 -20 -37 -49 -24 -57 13 -8 13 -45 0 -45 -16 0 -12 -56 6 -71 9 -7 13 -21 10 -35 -7 -25 10 -81 32 -106 23 -27 151 -112 158 -106 3 3 -11 28 -30 55 -52 72 -93 178 -112 285 -9 51 -17 94 -18 95 -1 1 -11 -6 -22 -15z"/>
 <path d="M1175 2571 c-151 -37 -234 -209 -171 -356 17 -39 18 -39 32 -20 29 38 105 196 99 206 -4 5 1 12 9 15 17 7 96 150 88 159 -6 6 -17 5 -57 -4z"/>
 <path d="M1880 2437 c0 -2 9 -30 20 -63 37 -107 60 -211 60 -274 0 -102 -43 -257 -105 -379 -13 -26 -33 -76 -45 -110 -19 -58 -20 -65 -5 -87 8 -13 19 -24 23 -24 5 0 14 28 20 63 20 110 79 211 185 319 113 115 124 139 107 236 -14 80 -39 140 -81 193 -44 55 -179 150 -179 126z"/>
 <path d="M2594 2268 c4 -46 14 -128 22 -182 23 -163 17 -291 -22 -425 -5 -18 -4 -23 7 -19 31 10 90 216 104 364 8 82 -16 186 -65 284 -43 84 -54 78 -46 -22z"/>
 <path d="M1187 2240 c-48 -89 -49 -114 -2 -64 44 48 84 154 57 154 -4 0 -29 -40 -55 -90z"/>
 <path d="M2317 2124 c-4 -4 -7 -19 -7 -33 0 -52 -50 -268 -81 -346 -64 -166 -105 -315 -86 -315 4 0 13 13 22 29 8 16 38 62 67 103 92 128 138 256 138 385 0 90 -32 197 -53 177z"/>
 <path d="M2353 741 c-80 -49 -39 -171 57 -171 30 0 44 6 64 31 43 51 32 115 -24 144 -38 20 -58 19 -97 -4z"/>
 </g>

</svg>